<svg width="54" height="54" viewBox="0 0 54 54" fill="none" xmlns="http://www.w3.org/2000/svg">
<path d="M36.8434 7.31215C39.4519 7.31994 41.9514 8.35962 43.7959 10.2041C45.6404 12.0486 46.6801 14.5481 46.6879 17.1566V36.8434C46.6801 39.4519 45.6404 41.9514 43.7959 43.7959C41.9514 45.6404 39.4519 46.6801 36.8434 46.6879H17.1566C14.5481 46.6801 12.0486 45.6404 10.2041 43.7959C8.35962 41.9514 7.31994 39.4519 7.31215 36.8434V17.1566C7.31994 14.5481 8.35962 12.0486 10.2041 10.2041C12.0486 8.35962 14.5481 7.31994 17.1566 7.31215H36.8434ZM36.8434 3.375H17.1566C9.57656 3.375 3.375 9.57656 3.375 17.1566V36.8434C3.375 44.4234 9.57656 50.625 17.1566 50.625H36.8434C44.4234 50.625 50.625 44.4234 50.625 36.8434V17.1566C50.625 9.57656 44.4234 3.375 36.8434 3.375Z" fill="#CCD0CF"/>
<path d="M39.7965 17.1566C39.2125 17.1566 38.6415 16.9834 38.1559 16.6589C37.6702 16.3344 37.2917 15.8732 37.0682 15.3336C36.8447 14.794 36.7862 14.2002 36.9001 13.6274C37.0141 13.0545 37.2954 12.5283 37.7084 12.1153C38.1214 11.7023 38.6476 11.421 39.2204 11.3071C39.7933 11.1931 40.387 11.2516 40.9266 11.4751C41.4663 11.6987 41.9275 12.0772 42.252 12.5628C42.5765 13.0484 42.7497 13.6194 42.7497 14.2035C42.7505 14.5915 42.6747 14.9759 42.5266 15.3346C42.3784 15.6932 42.161 16.0191 41.8866 16.2935C41.6122 16.5679 41.2863 16.7854 40.9276 16.9335C40.569 17.0816 40.1846 17.1574 39.7965 17.1566ZM27 19.1246C28.5576 19.1246 30.0802 19.5865 31.3753 20.4519C32.6704 21.3172 33.6798 22.5472 34.2759 23.9862C34.8719 25.4253 35.0279 27.0087 34.724 28.5364C34.4202 30.0641 33.6701 31.4673 32.5687 32.5687C31.4673 33.6701 30.0641 34.4202 28.5364 34.724C27.0087 35.0279 25.4253 34.8719 23.9862 34.2759C22.5472 33.6798 21.3172 32.6704 20.4519 31.3753C19.5865 30.0802 19.1247 28.5576 19.1247 27C19.1269 24.912 19.9573 22.9102 21.4338 21.4338C22.9102 19.9573 24.912 19.1269 27 19.1246ZM27 15.1875C24.6637 15.1875 22.3799 15.8803 20.4373 17.1783C18.4948 18.4762 16.9807 20.3211 16.0867 22.4796C15.1926 24.638 14.9587 27.0131 15.4145 29.3045C15.8703 31.5959 16.9953 33.7007 18.6473 35.3527C20.2993 37.0047 22.4041 38.1297 24.6955 38.5855C26.9869 39.0413 29.362 38.8074 31.5205 37.9133C33.6789 37.0193 35.5238 35.5052 36.8217 33.5627C38.1197 31.6201 38.8125 29.3363 38.8125 27C38.8125 23.8671 37.568 20.8626 35.3527 18.6473C33.1374 16.432 30.1329 15.1875 27 15.1875Z" fill="#CCD0CF"/>
</svg>