<svg width="54" height="54" viewBox="0 0 54 54" fill="none" xmlns="http://www.w3.org/2000/svg">
<path fill-rule="evenodd" clip-rule="evenodd" d="M43.7411 10.241C41.5569 8.05578 38.962 6.32413 36.1059 5.14577C33.2498 3.96741 30.1888 3.36561 27.0991 3.375C14.1328 3.375 3.5775 13.8776 3.57223 26.7891C3.56649 30.9004 4.65022 34.9398 6.71309 38.4961L3.375 50.625L15.8467 47.3692C19.2989 49.2394 23.1634 50.2182 27.0896 50.2168H27.0991C40.0644 50.2168 50.6187 39.7132 50.625 26.8028C50.6329 23.7237 50.0283 20.6738 48.8465 17.8305C47.6646 14.9872 45.9292 12.4073 43.7411 10.241ZM27.0991 46.2649H27.0907C23.5906 46.266 20.1541 45.3293 17.1387 43.5523L16.4246 43.1304L9.02391 45.0626L10.9993 37.8812L10.5342 37.1429C8.57713 34.0444 7.54022 30.4539 7.54418 26.7891C7.54418 16.0597 16.3202 7.33008 27.1065 7.33008C32.2808 7.32084 37.2469 9.36724 40.9125 13.0192C44.5781 16.6711 46.643 21.6295 46.653 26.8038C46.6488 37.5342 37.877 46.2649 27.0991 46.2649ZM37.8243 31.6902C37.2368 31.397 34.3438 29.9816 33.808 29.7865C33.2722 29.5914 32.8767 29.4933 32.4854 30.0797C32.0941 30.6661 30.9667 31.9781 30.6239 32.3736C30.2811 32.7691 29.9384 32.8124 29.3509 32.5192C28.7634 32.226 26.8682 31.609 24.6227 29.6156C22.8751 28.0642 21.696 26.1489 21.3532 25.5635C21.0104 24.9782 21.3163 24.6607 21.6105 24.3696C21.8753 24.107 22.198 23.6862 22.4923 23.3445C22.7865 23.0027 22.8846 22.758 23.0797 22.3678C23.2748 21.9776 23.1778 21.6359 23.0312 21.3437C22.8846 21.0516 21.7086 18.1712 21.2193 16.9995C20.7415 15.8583 20.2574 16.0133 19.8967 15.9954C19.5539 15.9785 19.1584 15.9743 18.7692 15.9743C18.4717 15.982 18.179 16.051 17.9093 16.177C17.6397 16.3029 17.3989 16.4831 17.202 16.7063C16.663 17.2927 15.1443 18.7102 15.1443 21.5873C15.1443 24.4645 17.2536 27.2489 17.5447 27.6391C17.8358 28.0294 21.6896 33.9388 27.5864 36.4732C28.6814 36.9421 29.8002 37.3533 30.9382 37.7051C32.3462 38.1502 33.6277 38.0879 34.6402 37.9371C35.7697 37.7694 38.1206 36.5217 38.6089 35.1548C39.0973 33.788 39.0983 32.6173 38.9517 32.3736C38.8051 32.13 38.4128 31.9823 37.8243 31.6902Z" fill="#CCD0CF"/>
</svg>